<svg xmlns="http://www.w3.org/2000/svg" width="1600" height="900" viewBox="0 0 1600 900" role="img" aria-labelledby="title desc">
  <title>The On Being Series image 4</title>
  <desc>Psychoacoustic Archetypes abstract artwork for the The On Being Series framework gallery.</desc>
  <defs>
    <linearGradient id="bg" x1="0" y1="0" x2="1" y2="1">
      <stop offset="0%" stop-color="#141414"/>
      <stop offset="55%" stop-color="#3A2F2A"/>
      <stop offset="100%" stop-color="#8C6A43"/>
    </linearGradient>
    <radialGradient id="orb" cx="50%" cy="45%" r="48%">
      <stop offset="0%" stop-color="#EAD7B7" stop-opacity="0.75"/>
      <stop offset="40%" stop-color="#8C6A43" stop-opacity="0.3"/>
      <stop offset="100%" stop-color="#8C6A43" stop-opacity="0"/>
    </radialGradient>
    <filter id="blur"><feGaussianBlur stdDeviation="18"/></filter>
  </defs>
  <rect width="1600" height="900" fill="url(#bg)"/>
  <circle cx="840" cy="240" r="220" fill="url(#orb)" filter="url(#blur)"/>
  <circle cx="1210" cy="180" r="160" fill="#EAD7B7" opacity="0.08"/>
  <polyline points="120,550 330,489 540,452 750,466 960,521 1170,576 1380,588" fill="none" stroke="#EAD7B7" stroke-opacity="0.24" stroke-width="6" stroke-linecap="round" stroke-linejoin="round"/>
  <path d="M0 596 C 220 526, 360 616, 560 551 S 960 666, 1240 576 S 1480 611, 1600 551 V900 H0Z" fill="#141414" opacity="0.48"/>
  <rect x="110" y="410" width="90" height="310" rx="20" fill="#8C6A43" opacity="0.12" /><rect x="290" y="590" width="90" height="130" rx="20" fill="#8C6A43" opacity="0.17" /><rect x="470" y="530" width="90" height="190" rx="20" fill="#8C6A43" opacity="0.22" /><rect x="650" y="470" width="90" height="250" rx="20" fill="#8C6A43" opacity="0.27" /><rect x="830" y="410" width="90" height="310" rx="20" fill="#8C6A43" opacity="0.32" /><rect x="1010" y="590" width="90" height="130" rx="20" fill="#8C6A43" opacity="0.37" /><rect x="1190" y="530" width="90" height="190" rx="20" fill="#8C6A43" opacity="0.42" />
  <circle cx="240" cy="170" r="10" fill="#EAD7B7" opacity="0.8"/><circle cx="460" cy="450" r="10" fill="#EAD7B7" opacity="0.8"/><line x1="240" y1="170" x2="460" y2="450" stroke="#EAD7B7" stroke-opacity="0.24" stroke-width="2"/><circle cx="680" cy="310" r="10" fill="#EAD7B7" opacity="0.8"/><line x1="460" y1="450" x2="680" y2="310" stroke="#EAD7B7" stroke-opacity="0.24" stroke-width="2"/><circle cx="900" cy="170" r="10" fill="#EAD7B7" opacity="0.8"/><line x1="680" y1="310" x2="900" y2="170" stroke="#EAD7B7" stroke-opacity="0.24" stroke-width="2"/><circle cx="1120" cy="450" r="10" fill="#EAD7B7" opacity="0.8"/><line x1="900" y1="170" x2="1120" y2="450" stroke="#EAD7B7" stroke-opacity="0.24" stroke-width="2"/>
  <g transform="translate(110 120)">
    <text x="0" y="0" fill="#EAD7B7" font-size="28" font-family="Inter, Arial, sans-serif" letter-spacing="7" opacity="0.72">FRAMEWORK_04</text>
    <text x="0" y="86" fill="white" font-size="86" font-family="Inter, Arial, sans-serif" font-weight="600">The On Being Series</text>
    <text x="0" y="138" fill="#EAD7B7" font-size="34" font-family="Inter, Arial, sans-serif" opacity="0.86">Psychoacoustic Archetypes</text>
  </g>
</svg>