<svg xmlns="http://www.w3.org/2000/svg" width="1600" height="900" viewBox="0 0 1600 900" role="img" aria-labelledby="title desc">
  <title>Quantumelodies image 2</title>
  <desc>Harmonic System Design abstract artwork for the Quantumelodies framework gallery.</desc>
  <defs>
    <linearGradient id="bg" x1="0" y1="0" x2="1" y2="1">
      <stop offset="0%" stop-color="#0B1020"/>
      <stop offset="55%" stop-color="#1A2A6C"/>
      <stop offset="100%" stop-color="#B21F1F"/>
    </linearGradient>
    <radialGradient id="orb" cx="50%" cy="45%" r="48%">
      <stop offset="0%" stop-color="#FDBB2D" stop-opacity="0.75"/>
      <stop offset="40%" stop-color="#B21F1F" stop-opacity="0.3"/>
      <stop offset="100%" stop-color="#B21F1F" stop-opacity="0"/>
    </radialGradient>
    <filter id="blur"><feGaussianBlur stdDeviation="18"/></filter>
  </defs>
  <rect width="1600" height="900" fill="url(#bg)"/>
  <circle cx="480" cy="330" r="220" fill="url(#orb)" filter="url(#blur)"/>
  <circle cx="1210" cy="180" r="160" fill="#FDBB2D" opacity="0.08"/>
  <polyline points="120,575 330,588 540,550 750,489 960,452 1170,466 1380,521" fill="none" stroke="#FDBB2D" stroke-opacity="0.24" stroke-width="6" stroke-linecap="round" stroke-linejoin="round"/>
  <path d="M0 632 C 220 562, 360 652, 560 587 S 960 702, 1240 612 S 1480 647, 1600 587 V900 H0Z" fill="#0B1020" opacity="0.48"/>
  <rect x="110" y="530" width="90" height="190" rx="20" fill="#B21F1F" opacity="0.12" /><rect x="290" y="470" width="90" height="250" rx="20" fill="#B21F1F" opacity="0.17" /><rect x="470" y="410" width="90" height="310" rx="20" fill="#B21F1F" opacity="0.22" /><rect x="650" y="590" width="90" height="130" rx="20" fill="#B21F1F" opacity="0.27" /><rect x="830" y="530" width="90" height="190" rx="20" fill="#B21F1F" opacity="0.32" /><rect x="1010" y="470" width="90" height="250" rx="20" fill="#B21F1F" opacity="0.37" /><rect x="1190" y="410" width="90" height="310" rx="20" fill="#B21F1F" opacity="0.42" />
  <circle cx="240" cy="310" r="10" fill="#FDBB2D" opacity="0.8"/><circle cx="460" cy="170" r="10" fill="#FDBB2D" opacity="0.8"/><line x1="240" y1="310" x2="460" y2="170" stroke="#FDBB2D" stroke-opacity="0.24" stroke-width="2"/><circle cx="680" cy="450" r="10" fill="#FDBB2D" opacity="0.8"/><line x1="460" y1="170" x2="680" y2="450" stroke="#FDBB2D" stroke-opacity="0.24" stroke-width="2"/><circle cx="900" cy="310" r="10" fill="#FDBB2D" opacity="0.8"/><line x1="680" y1="450" x2="900" y2="310" stroke="#FDBB2D" stroke-opacity="0.24" stroke-width="2"/><circle cx="1120" cy="170" r="10" fill="#FDBB2D" opacity="0.8"/><line x1="900" y1="310" x2="1120" y2="170" stroke="#FDBB2D" stroke-opacity="0.24" stroke-width="2"/>
  <g transform="translate(110 120)">
    <text x="0" y="0" fill="#FDBB2D" font-size="28" font-family="Inter, Arial, sans-serif" letter-spacing="7" opacity="0.72">FRAMEWORK_02</text>
    <text x="0" y="86" fill="white" font-size="86" font-family="Inter, Arial, sans-serif" font-weight="600">Quantumelodies</text>
    <text x="0" y="138" fill="#FDBB2D" font-size="34" font-family="Inter, Arial, sans-serif" opacity="0.86">Harmonic System Design</text>
  </g>
</svg>